<mxfile host="app.diagrams.net" modified="2024-02-17T18:22:38.264Z" agent="Mozilla/5.0 (Macintosh; Intel Mac OS X 10_15_7) AppleWebKit/537.36 (KHTML, like Gecko) Chrome/121.0.0.0 Safari/537.36" etag="dMTP63lvThkqx_x9eHyi" version="23.1.2" type="device">
  <diagram name="Page-1" id="KzWukeG7de0gS5ASBucn">
    <mxGraphModel dx="1205" dy="724" grid="1" gridSize="10" guides="1" tooltips="1" connect="1" arrows="1" fold="1" page="1" pageScale="1" pageWidth="827" pageHeight="1169" math="0" shadow="0">
      <root>
        <mxCell id="0" />
        <mxCell id="1" parent="0" />
        <mxCell id="lVGVy7C7Y4jDRtXLIWBm-1" value="User" style="shape=umlActor;verticalLabelPosition=bottom;verticalAlign=top;html=1;outlineConnect=0;" vertex="1" parent="1">
          <mxGeometry x="90" y="40" width="30" height="60" as="geometry" />
        </mxCell>
        <mxCell id="lVGVy7C7Y4jDRtXLIWBm-2" value="App" style="rounded=1;whiteSpace=wrap;html=1;" vertex="1" parent="1">
          <mxGeometry x="330" y="40" width="120" height="60" as="geometry" />
        </mxCell>
        <mxCell id="lVGVy7C7Y4jDRtXLIWBm-3" value="Database" style="rounded=1;whiteSpace=wrap;html=1;" vertex="1" parent="1">
          <mxGeometry x="610" y="40" width="120" height="60" as="geometry" />
        </mxCell>
        <mxCell id="lVGVy7C7Y4jDRtXLIWBm-4" value="" style="rounded=0;whiteSpace=wrap;html=1;" vertex="1" parent="1">
          <mxGeometry x="660" y="165" width="20" height="420" as="geometry" />
        </mxCell>
        <mxCell id="lVGVy7C7Y4jDRtXLIWBm-6" value="" style="rounded=0;whiteSpace=wrap;html=1;" vertex="1" parent="1">
          <mxGeometry x="380" y="165" width="20" height="420" as="geometry" />
        </mxCell>
        <mxCell id="lVGVy7C7Y4jDRtXLIWBm-7" value="" style="rounded=0;whiteSpace=wrap;html=1;" vertex="1" parent="1">
          <mxGeometry x="390" y="200" width="20" height="60" as="geometry" />
        </mxCell>
        <mxCell id="lVGVy7C7Y4jDRtXLIWBm-8" value="" style="rounded=0;whiteSpace=wrap;html=1;" vertex="1" parent="1">
          <mxGeometry x="390" y="360" width="20" height="60" as="geometry" />
        </mxCell>
        <mxCell id="lVGVy7C7Y4jDRtXLIWBm-9" value="" style="rounded=0;whiteSpace=wrap;html=1;" vertex="1" parent="1">
          <mxGeometry x="390" y="470" width="20" height="60" as="geometry" />
        </mxCell>
        <mxCell id="lVGVy7C7Y4jDRtXLIWBm-10" value="" style="endArrow=none;dashed=1;html=1;rounded=0;" edge="1" parent="1">
          <mxGeometry width="50" height="50" relative="1" as="geometry">
            <mxPoint x="100" y="650" as="sourcePoint" />
            <mxPoint x="100" y="130" as="targetPoint" />
          </mxGeometry>
        </mxCell>
        <mxCell id="lVGVy7C7Y4jDRtXLIWBm-11" value="" style="endArrow=none;dashed=1;html=1;rounded=0;" edge="1" parent="1">
          <mxGeometry width="50" height="50" relative="1" as="geometry">
            <mxPoint x="390" y="120" as="sourcePoint" />
            <mxPoint x="390" y="160" as="targetPoint" />
          </mxGeometry>
        </mxCell>
        <mxCell id="lVGVy7C7Y4jDRtXLIWBm-12" value="" style="endArrow=none;dashed=1;html=1;rounded=0;" edge="1" parent="1">
          <mxGeometry width="50" height="50" relative="1" as="geometry">
            <mxPoint x="389" y="585" as="sourcePoint" />
            <mxPoint x="389" y="650" as="targetPoint" />
          </mxGeometry>
        </mxCell>
        <mxCell id="lVGVy7C7Y4jDRtXLIWBm-13" value="" style="endArrow=none;dashed=1;html=1;rounded=0;" edge="1" parent="1">
          <mxGeometry width="50" height="50" relative="1" as="geometry">
            <mxPoint x="669.5" y="125" as="sourcePoint" />
            <mxPoint x="669.5" y="165" as="targetPoint" />
          </mxGeometry>
        </mxCell>
        <mxCell id="lVGVy7C7Y4jDRtXLIWBm-14" value="" style="endArrow=none;dashed=1;html=1;rounded=0;" edge="1" parent="1">
          <mxGeometry width="50" height="50" relative="1" as="geometry">
            <mxPoint x="669.5" y="585" as="sourcePoint" />
            <mxPoint x="670" y="650" as="targetPoint" />
          </mxGeometry>
        </mxCell>
        <mxCell id="lVGVy7C7Y4jDRtXLIWBm-23" value="" style="endArrow=classic;html=1;rounded=0;exitX=-0.06;exitY=0.892;exitDx=0;exitDy=0;exitPerimeter=0;dashed=1;" edge="1" parent="1" source="lVGVy7C7Y4jDRtXLIWBm-6">
          <mxGeometry relative="1" as="geometry">
            <mxPoint x="380" y="310" as="sourcePoint" />
            <mxPoint x="100" y="540" as="targetPoint" />
          </mxGeometry>
        </mxCell>
        <mxCell id="lVGVy7C7Y4jDRtXLIWBm-24" value="Tasks list page" style="edgeLabel;resizable=0;html=1;align=center;verticalAlign=middle;" connectable="0" vertex="1" parent="lVGVy7C7Y4jDRtXLIWBm-23">
          <mxGeometry relative="1" as="geometry" />
        </mxCell>
        <mxCell id="lVGVy7C7Y4jDRtXLIWBm-25" value="" style="endArrow=classic;html=1;rounded=0;exitX=-0.06;exitY=0.892;exitDx=0;exitDy=0;exitPerimeter=0;dashed=1;" edge="1" parent="1">
          <mxGeometry relative="1" as="geometry">
            <mxPoint x="380" y="570" as="sourcePoint" />
            <mxPoint x="101" y="570" as="targetPoint" />
          </mxGeometry>
        </mxCell>
        <mxCell id="lVGVy7C7Y4jDRtXLIWBm-26" value="Display success message" style="edgeLabel;resizable=0;html=1;align=center;verticalAlign=middle;" connectable="0" vertex="1" parent="lVGVy7C7Y4jDRtXLIWBm-25">
          <mxGeometry relative="1" as="geometry" />
        </mxCell>
        <mxCell id="lVGVy7C7Y4jDRtXLIWBm-27" value="" style="endArrow=classic;html=1;rounded=0;entryX=-0.202;entryY=0.038;entryDx=0;entryDy=0;entryPerimeter=0;" edge="1" parent="1" target="lVGVy7C7Y4jDRtXLIWBm-6">
          <mxGeometry relative="1" as="geometry">
            <mxPoint x="100" y="180" as="sourcePoint" />
            <mxPoint x="480" y="310" as="targetPoint" />
          </mxGeometry>
        </mxCell>
        <mxCell id="lVGVy7C7Y4jDRtXLIWBm-28" value="Click on Create Task" style="edgeLabel;resizable=0;html=1;align=center;verticalAlign=middle;" connectable="0" vertex="1" parent="lVGVy7C7Y4jDRtXLIWBm-27">
          <mxGeometry relative="1" as="geometry" />
        </mxCell>
        <mxCell id="lVGVy7C7Y4jDRtXLIWBm-29" value="&lt;br&gt;" style="endArrow=classic;html=1;rounded=0;entryX=-0.202;entryY=0.038;entryDx=0;entryDy=0;entryPerimeter=0;" edge="1" parent="1">
          <mxGeometry relative="1" as="geometry">
            <mxPoint x="104" y="320" as="sourcePoint" />
            <mxPoint x="380" y="321" as="targetPoint" />
          </mxGeometry>
        </mxCell>
        <mxCell id="lVGVy7C7Y4jDRtXLIWBm-30" value="Fill form and submit" style="edgeLabel;resizable=0;html=1;align=center;verticalAlign=middle;" connectable="0" vertex="1" parent="lVGVy7C7Y4jDRtXLIWBm-29">
          <mxGeometry relative="1" as="geometry" />
        </mxCell>
        <mxCell id="lVGVy7C7Y4jDRtXLIWBm-31" value="" style="endArrow=classic;html=1;rounded=0;entryX=1;entryY=0.5;entryDx=0;entryDy=0;exitX=1.083;exitY=0.042;exitDx=0;exitDy=0;exitPerimeter=0;" edge="1" parent="1" source="lVGVy7C7Y4jDRtXLIWBm-6" target="lVGVy7C7Y4jDRtXLIWBm-7">
          <mxGeometry relative="1" as="geometry">
            <mxPoint x="450" y="180" as="sourcePoint" />
            <mxPoint x="456" y="230" as="targetPoint" />
            <Array as="points">
              <mxPoint x="440" y="183" />
              <mxPoint x="440" y="230" />
            </Array>
          </mxGeometry>
        </mxCell>
        <mxCell id="lVGVy7C7Y4jDRtXLIWBm-32" value="Check authorization" style="edgeLabel;resizable=0;html=1;align=center;verticalAlign=middle;" connectable="0" vertex="1" parent="lVGVy7C7Y4jDRtXLIWBm-31">
          <mxGeometry relative="1" as="geometry">
            <mxPoint x="40" y="7" as="offset" />
          </mxGeometry>
        </mxCell>
        <mxCell id="lVGVy7C7Y4jDRtXLIWBm-33" value="" style="endArrow=classic;html=1;rounded=0;entryX=1;entryY=0.5;entryDx=0;entryDy=0;exitX=1.083;exitY=0.042;exitDx=0;exitDy=0;exitPerimeter=0;" edge="1" parent="1">
          <mxGeometry relative="1" as="geometry">
            <mxPoint x="400" y="340" as="sourcePoint" />
            <mxPoint x="408" y="387" as="targetPoint" />
            <Array as="points">
              <mxPoint x="438" y="340" />
              <mxPoint x="438" y="387" />
            </Array>
          </mxGeometry>
        </mxCell>
        <mxCell id="lVGVy7C7Y4jDRtXLIWBm-34" value="Check form" style="edgeLabel;resizable=0;html=1;align=center;verticalAlign=middle;" connectable="0" vertex="1" parent="lVGVy7C7Y4jDRtXLIWBm-33">
          <mxGeometry relative="1" as="geometry">
            <mxPoint x="22" y="11" as="offset" />
          </mxGeometry>
        </mxCell>
        <mxCell id="lVGVy7C7Y4jDRtXLIWBm-35" value="Register success message" style="endArrow=classic;html=1;rounded=0;entryX=1;entryY=0.5;entryDx=0;entryDy=0;exitX=1.083;exitY=0.042;exitDx=0;exitDy=0;exitPerimeter=0;" edge="1" parent="1">
          <mxGeometry x="0.0087" y="52" relative="1" as="geometry">
            <mxPoint x="400" y="450" as="sourcePoint" />
            <mxPoint x="408" y="497" as="targetPoint" />
            <Array as="points">
              <mxPoint x="438" y="450" />
              <mxPoint x="438" y="497" />
            </Array>
            <mxPoint as="offset" />
          </mxGeometry>
        </mxCell>
        <mxCell id="lVGVy7C7Y4jDRtXLIWBm-37" value="Register Task" style="endArrow=classic;html=1;rounded=0;" edge="1" parent="1">
          <mxGeometry relative="1" as="geometry">
            <mxPoint x="400" y="440" as="sourcePoint" />
            <mxPoint x="660" y="441" as="targetPoint" />
          </mxGeometry>
        </mxCell>
        <mxCell id="lVGVy7C7Y4jDRtXLIWBm-40" value="" style="endArrow=classic;html=1;rounded=0;exitX=-0.06;exitY=0.892;exitDx=0;exitDy=0;exitPerimeter=0;dashed=1;" edge="1" parent="1">
          <mxGeometry relative="1" as="geometry">
            <mxPoint x="380" y="229.51999999999998" as="sourcePoint" />
            <mxPoint x="101" y="229.51999999999998" as="targetPoint" />
          </mxGeometry>
        </mxCell>
        <mxCell id="lVGVy7C7Y4jDRtXLIWBm-41" value="Display form" style="edgeLabel;resizable=0;html=1;align=center;verticalAlign=middle;" connectable="0" vertex="1" parent="lVGVy7C7Y4jDRtXLIWBm-40">
          <mxGeometry relative="1" as="geometry" />
        </mxCell>
      </root>
    </mxGraphModel>
  </diagram>
</mxfile>
